<?xml version="1.0" encoding="UTF-8"?>
<!DOCTYPE svg PUBLIC "-//W3C//DTD SVG 1.1//EN" "http://www.w3.org/Graphics/SVG/1.1/DTD/svg11.dtd">
<!-- Creator: CorelDRAW 2018 (64 Bit Versão de avaliação) -->
<svg xmlns="http://www.w3.org/2000/svg" xml:space="preserve" width="3.45833in" height="3.45833in" version="1.1" style="shape-rendering:geometricPrecision; text-rendering:geometricPrecision; image-rendering:optimizeQuality; fill-rule:evenodd; clip-rule:evenodd"
viewBox="0 0 2376.03 2376.03"
 xmlns:xlink="http://www.w3.org/1999/xlink">
 <defs>
  <style type="text/css">
   <![CDATA[
    .fil0 {fill:#00B8A2}
    .fil3 {fill:#0868AC}
    .fil1 {fill:#088778}
    .fil2 {fill:white}
   ]]>
  </style>
 </defs>
 <g id="Camada_x0020_1">
  <metadata id="CorelCorpID_0Corel-Layer"/>
  <g id="_1278821693504">
   <circle class="fil0" cx="1188.01" cy="1188.01" r="1188.01"/>
   <path class="fil1" d="M1097.83 2084.51l543.8 201.76c431.07,-178.24 734.41,-602.8 734.41,-1098.26 0,-50.33 -3.16,-99.92 -9.24,-148.61l-491.8 -182.47 -0 0c12.62,6.71 21.25,20 21.25,35.22l0 174.59c0,10.19 -8.32,18.52 -18.52,18.52l-1351.53 0c-4.3,0 -8.27,-1.48 -11.42,-3.96l38.87 39.19c216,0 432.15,0 648.18,0 216.02,0 432.3,0 648.45,0 -90.77,88.4 -181.62,176.8 -272.3,265.2 -90.57,88.27 -181.27,176.74 -271.91,265.09l0 339.62 -208.24 94.1z"/>
   <path class="fil2" d="M547.52 852.3l1308.86 0c21.93,0 39.85,17.92 39.85,39.85l0 174.59c0,10.19 -8.32,18.52 -18.52,18.52l-1351.53 0c-10.19,0 -18.52,-8.32 -18.52,-18.52l0 -174.59c0,-21.93 17.93,-39.85 39.85,-39.85zm550.3 1232.21l208.24 -94.11 0 -339.62c90.64,-88.34 181.34,-176.82 271.91,-265.09 90.68,-88.4 181.53,-176.8 272.3,-265.2 -216.15,0 -432.43,0 -648.45,0 -216.02,0 -432.17,0 -648.18,0 90.49,88.4 181.4,176.87 272.02,265.2 90.63,88.34 181.27,176.74 272.04,265.09l0.13 0 0 433.73z"/>
   <g>
    <g>
     <path class="fil3" d="M995.87 306.2c-57.55,82.82 -54.43,193.68 -9.53,281.27 7.53,14.68 15.99,28.93 25.45,42.49 8.62,12.36 18.18,27.06 29.62,36.98 4.16,4.57 8.49,9.03 12.92,13.4 1.12,1.15 2.27,2.24 3.41,3.38 4.3,4.16 8.66,8.26 13.19,12.24 0.18,0.16 0.35,0.34 0.54,0.46 0.05,0.06 0.1,0.08 0.13,0.14 5,4.37 10.17,8.6 15.41,12.74 1.16,0.88 2.32,1.82 3.49,2.73 5.26,4.03 10.61,8 16.12,11.77 0.17,0.12 0.31,0.23 0.46,0.37 2.42,1.66 4.91,3.23 7.35,4.83 1.18,0.77 2.3,1.59 3.49,2.3 3.92,2.51 7.9,4.96 11.94,7.32 0.57,0.35 1.13,0.64 1.68,0.97 3.49,2.01 7.02,3.99 10.57,5.91 1.23,0.7 2.49,1.31 3.75,1.96 2.45,1.28 4.9,2.58 7.38,3.83 0.37,0.18 0.75,0.35 1.11,0.5 5.07,2.5 10.19,4.9 15.41,7.18 1.11,0.49 2.27,0.93 3.41,1.41 4.17,1.77 8.39,3.49 12.62,5.13 1.8,0.68 3.61,1.33 5.42,1.99 3.84,1.43 7.71,2.73 11.6,4.04 1.76,0.56 3.49,1.13 5.25,1.67 5.53,1.71 11,3.89 16.77,4.84 297.14,49.23 365.75,-179.55 365.75,-179.55 -61.85,89.04 -181.59,131.55 -309.39,98.38 -5.67,-1.49 -11.27,-3.11 -16.82,-4.86 -1.7,-0.52 -3.38,-1.07 -5.06,-1.63 -3.95,-1.28 -7.88,-2.65 -11.77,-4.06 -1.78,-0.64 -3.57,-1.3 -5.32,-1.97 -4.27,-1.64 -8.49,-3.34 -12.67,-5.12 -1.14,-0.49 -2.29,-0.93 -3.42,-1.44 -5.25,-2.27 -10.41,-4.7 -15.51,-7.19 -2.62,-1.29 -5.19,-2.65 -7.77,-3.96 -1.49,-0.78 -2.99,-1.54 -4.49,-2.31 -3.31,-1.8 -6.6,-3.66 -9.85,-5.55 -0.77,-0.44 -1.57,-0.85 -2.35,-1.33 -4.03,-2.35 -8,-4.77 -11.92,-7.27 -1.21,-0.78 -2.37,-1.61 -3.58,-2.4 -2.59,-1.68 -5.18,-3.39 -7.72,-5.11 -5.47,-3.77 -10.81,-7.73 -16.06,-11.74 -1.21,-0.96 -2.43,-1.88 -3.61,-2.83 -55.94,-44.17 -100.27,-104.53 -121.35,-172.95 -22.09,-70.98 -17.34,-150.65 20.94,-215.3l-46.99 66.34zm0 0l0 0 0 0z"/>
    </g>
    <g>
     <path class="fil3" d="M1203.63 234.2c-33.92,49.92 -37.26,111.94 -13.72,167.08 24.83,58.53 75.7,104.44 135.07,126.21 2.45,0.91 4.89,1.72 7.38,2.57 1.08,0.34 2.15,0.7 3.25,1.03 3.49,1.1 6.97,2.38 10.58,3.06 164.07,31.71 208.57,-84.2 220.42,-101.26 -38.99,56.13 -104.5,69.6 -184.88,50.09 -6.35,-1.56 -13.33,-3.84 -19.45,-6 -7.85,-2.8 -15.58,-5.99 -23.1,-9.59 -14.27,-6.86 -27.87,-15.19 -40.49,-24.7 -71.92,-54.57 -116.62,-158.69 -69.68,-243.48l-25.39 35zm0 0l0 0 0 0z"/>
    </g>
    <path class="fil3" d="M810.89 323.78l-62.05 78.79c-79.58,114.38 -69.66,263.19 -8.88,384.73 1.45,2.91 2.96,5.78 4.46,8.66 0.95,1.81 1.85,3.67 2.85,5.46 0.56,1.07 1.19,2.13 1.77,3.15 0.52,0.97 1.04,1.91 1.57,2.85l164.18 0c-1.02,-1.01 -2.03,-2.03 -3.03,-3.05 -1.23,-1.23 -2.47,-2.45 -3.68,-3.67 -3.92,-4.02 -7.76,-8.07 -11.53,-12.2 -0.18,-0.21 -0.38,-0.38 -0.57,-0.61 -3.99,-4.35 -7.88,-8.82 -11.7,-13.31 -1.04,-1.23 -2.04,-2.42 -3.06,-3.63 -2.85,-3.43 -5.66,-6.89 -8.41,-10.41 -1.04,-1.25 -2.07,-2.55 -3.09,-3.84 -3.31,-4.3 -6.55,-8.58 -9.72,-12.94 -87.67,-119.58 -119.17,-284.52 -49.1,-419.96z"/>
   </g>
  </g>
 </g>
</svg>
